# xmcd
#
# Track frame offsets:
# 150
# 17542
# 39080
# 62132
# 81447
# 97170
# 119325
# 139977
# 160400
# 176890
#
# Disc length: 2591 seconds
#
#
# Revision: 3
# Processed by: cddbd v1.5.1PL0 Copyright (c) Steve Scherf et al.
# Submitted via: FreeRIP 2.80 
#
DISCID=880a1d0a
DTITLE=Simone - Sedução
DYEAR=1900
DGENRE=Blues
TTITLE0=Separação
TTITLE1=Codinome Bèija-Flor
TTITLE2=Apaixonou
TTITLE3=Olhos Negros
TTITLE4=Kalú
TTITLE5=O Tempo Não Pára
TTITLE6=Amei Demais
TTITLE7=Carta Marcada
TTITLE8=Falou Amizade
TTITLE9=Disputa De Poder
EXTD=ID3G:   0
EXTT0=(Jos  Augusto-Paulo S rgio Valle)
EXTT1=(Reinaldo Arias-Cazuza-Ezequiel Neves)
EXTT2=Pl cido Domingo
EXTT3=(Tunai
EXTT4=(Humberto Teixeira)
EXTT5=(Arnaldo Brand o-Cazuza)
EXTT6=(Michael Sulivan-Paulo Massadas)
EXTT7=(Cesar Camargo Mariano-Ronaldo Bastos)
EXTT8=(Caetano Veloso)
EXTT9=(Almir De Ara jo-Marquinho Lopes Lessa-\nH rcules Corr a-Balinha
PLAYORDER=
